<svg width="360" height="96" viewBox="0 0 360 96" fill="none" xmlns="http://www.w3.org/2000/svg">
  <rect x="4" y="8" width="80" height="80" rx="20" fill="#FFF4E6"/>
  <path d="M44 30C51.2 30 57 35.8 57 43C57 50.2 51.2 56 44 56C36.8 56 31 50.2 31 43C31 35.8 36.8 30 44 30Z" fill="#FFD580"/>
  <path d="M42.5 22C53.9 22 63.2 31.3 63.2 42.7V44.3H21.8V42.7C21.8 31.3 31.1 22 42.5 22Z" fill="#FCEFEF"/>
  <path d="M27 58H61C61 67.4 53.4 75 44 75C34.6 75 27 67.4 27 58Z" fill="#FFD580"/>
  <circle cx="35" cy="41" r="2.2" fill="#333333"/>
  <circle cx="53" cy="41" r="2.2" fill="#333333"/>
  <path d="M36.5 50C38.6 52.5 41.1 53.7 44 53.7C46.9 53.7 49.4 52.5 51.5 50" stroke="#333333" stroke-width="2" stroke-linecap="round"/>
  <text x="100" y="44" fill="#333333" font-size="28" font-family="ui-sans-serif, system-ui, -apple-system, Segoe UI, Roboto, Helvetica, Arial" font-weight="700">SweetCrumbs</text>
  <text x="100" y="70" fill="#333333" opacity="0.82" font-size="20" font-family="ui-sans-serif, system-ui, -apple-system, Segoe UI, Roboto, Helvetica, Arial" font-weight="500">Bakery</text>
</svg>
